<svg xmlns="http://www.w3.org/2000/svg" width="20" height="13" viewBox="0 0 20 13"><g><g><path fill="#fedd2e" d="M19.831 6.899c-.178.248-4.417 6.1-9.831 6.1S.346 7.147.168 6.898a.69.69 0 0 1 0-.796C.346 5.854 4.586.002 10 .002c5.414 0 9.653 5.852 9.831 6.1a.69.69 0 0 1 0 .797zM18.465 6.5C17.442 5.229 13.988 1.345 10 1.345c-3.997 0-7.444 3.883-8.465 5.154C2.557 7.77 6.012 11.654 10 11.654c3.997 0 7.444-3.884 8.465-5.153zm-4.526-.002c0 2.225-1.767 4.035-3.94 4.035-2.171 0-3.939-1.81-3.939-4.035 0-2.224 1.768-4.035 3.94-4.035 2.172 0 3.94 1.81 3.94 4.035zm-1.313 0c0-1.482-1.178-2.689-2.626-2.689S7.374 5.017 7.374 6.5c0 1.482 1.178 2.69 2.626 2.69s2.626-1.208 2.626-2.69z"/></g></g></svg>