<svg xmlns="http://www.w3.org/2000/svg" width="19" height="23" viewBox="0 0 19 23"><g><g><path fill="#01528d" d="M6.165 10.941c-1.779-2.07-1.483-5.613-1.45-5.95C4.83 2.435 6.012 1.218 6.982.65 7.95.086 8.957 0 9.47 0h.079c.933.023 1.77.246 2.486.673.962.569 2.126 1.78 2.242 4.32.032.336.328 3.878-1.452 5.95-.808.935-1.904 1.425-3.258 1.453H9.42c-1.354-.028-2.45-.518-3.254-1.454zm.93-.857c.577.678 1.358 1.015 2.375 1.022h.046c1.022-.007 1.798-.344 2.38-1.022 1.47-1.7 1.147-4.942 1.142-4.975-.005-.01-.005-.025-.005-.038-.143-3.23-2.264-3.753-3.512-3.779h-.056c-1.007 0-3.36.367-3.512 3.779 0 .01-.005.024-.005.038-.004.027-.319 3.28 1.147 4.975zm11.674 10.34a.628.628 0 0 1-.24.299c-.14.09-3.462 2.277-9.022 2.277-5.56 0-8.883-2.181-9.022-2.277a.603.603 0 0 1-.24-.3c-.245-.64-.24-1.91-.236-2.157v-.015c.005-.035.005-.075.005-.118.028-.94.088-3.144 2.094-3.856.013-.002.027-.01.046-.013 2.093-.55 3.817-1.785 3.836-1.799a.607.607 0 0 1 .869.16.647.647 0 0 1-.153.889c-.078.054-1.918 1.378-4.22 1.989-1.076.396-1.197 1.583-1.229 2.666 0 .047-.004.082-.004.12-.01.428.023 1.091.097 1.47.753.44 3.706 1.957 8.152 1.957 4.465 0 7.4-1.509 8.149-1.95.073-.38.101-1.043.097-1.47-.005-.04-.005-.078-.005-.12-.032-1.086-.153-2.27-1.23-2.67-2.301-.611-4.14-1.93-4.22-1.988a.65.65 0 0 1-.152-.891.613.613 0 0 1 .87-.158c.018.015 1.75 1.25 3.835 1.799.014.007.033.01.046.014 2.006.707 2.066 2.911 2.094 3.854 0 .043.005.082.005.12v.017c.004.245.009 1.515-.222 2.15z"/></g></g></svg>