<svg xmlns="http://www.w3.org/2000/svg" width="19" height="23" viewBox="0 0 19 23"><g><g><path fill="#01528d" d="M6.165 10.94c-1.779-2.07-1.483-5.612-1.45-5.95C4.83 2.436 6.012 1.219 6.982.65 7.95.085 8.957-.002 9.47-.002h.079c.933.023 1.77.247 2.486.675.961.568 2.126 1.78 2.241 4.318.033.337.329 3.88-1.45 5.95-.81.936-1.905 1.426-3.259 1.453h-.148c-1.354-.027-2.45-.517-3.254-1.454zm.93-.856c.577.678 1.358 1.015 2.375 1.023h.046c1.022-.008 1.798-.345 2.38-1.023 1.47-1.7 1.147-4.941 1.142-4.975-.005-.01-.005-.025-.005-.039-.143-3.23-2.264-3.752-3.512-3.778h-.056c-1.007 0-3.36.366-3.512 3.778 0 .01-.005.024-.005.04-.004.026-.319 3.28 1.146 4.974zm11.674 10.34a.632.632 0 0 1-.24.299c-.14.09-3.462 2.277-9.022 2.277-5.56 0-8.883-2.182-9.022-2.277a.606.606 0 0 1-.24-.3c-.245-.64-.24-1.91-.236-2.158v-.014c.005-.036.005-.076.005-.118.028-.94.088-3.144 2.094-3.855.013-.004.027-.01.046-.014 2.093-.55 3.817-1.785 3.836-1.799a.607.607 0 0 1 .869.159.648.648 0 0 1-.153.89c-.078.054-1.918 1.378-4.22 1.989-1.077.395-1.197 1.582-1.229 2.666 0 .046-.005.082-.005.12-.009.427.024 1.091.098 1.47.753.44 3.706 1.957 8.152 1.957 4.465 0 7.4-1.51 8.148-1.95.074-.38.102-1.043.098-1.47-.005-.041-.005-.078-.005-.12-.033-1.087-.153-2.27-1.23-2.671-2.301-.61-4.14-1.93-4.22-1.987a.65.65 0 0 1-.152-.891.613.613 0 0 1 .87-.158c.018.016 1.75 1.251 3.835 1.798.014.007.033.011.046.014 2.006.708 2.066 2.912 2.094 3.855 0 .043.005.082.005.119v.017c.004.246.009 1.516-.222 2.151z"/></g></g></svg>