<svg xmlns="http://www.w3.org/2000/svg" width="21" height="24" viewBox="0 0 21 24"><g><g><path fill="#01528d" d="M20.364 18.156c.444.562.636 1.186.56 1.806-.076.613-.41 1.178-.969 1.633-.242.199-.49.384-.73.563-.352.264-.688.514-.986.794-.007.01-.017.014-.024.024-.862.73-1.884 1.024-3.04.88-.1-.01-.21-.03-.314-.046-1.703-.318-3.16-1.15-4.244-1.835-2.834-1.82-5.218-4.2-7.088-7.076-1.54-2.384-2.503-4.548-3.045-6.827C.264 7.143 0 5.735.3 4.294A3.66 3.66 0 0 1 1.67 2.11L3.584.607l.01-.01c.56-.414 1.182-.598 1.793-.523.61.073 1.16.399 1.586.938.288.34.564.695.827 1.044.13.177.27.356.407.528l1.198 1.528c.922 1.173.755 2.529-.425 3.45-.157.12-.315.25-.473.371-.416.331-.844.672-1.3.995.221.709.56 1.427 1.089 2.289 1.096 1.737 2.292 3.124 3.658 4.239.134.111.293.217.463.33.117.076.239.159.36.245l1.775-1.374c.568-.447 1.191-.636 1.806-.564.621.078 1.173.42 1.597.982zm-1.077.826l-2.42-3.087-.008-.007c-.134-.19-.365-.414-.676-.456-.315-.034-.61.135-.802.285l-1.921 1.495c-.096.075-.388.305-.803.253a1.09 1.09 0 0 1-.48-.188c-.02-.009-.038-.03-.056-.041-.134-.107-.294-.21-.463-.324a6.797 6.797 0 0 1-.575-.409c-1.481-1.208-2.775-2.706-3.947-4.577l-.005-.003C6.49 10.869 6.088 10.003 5.84 9.1a.842.842 0 0 1-.01-.046c-.055-.295-.083-.724.4-1.102.006-.008.017-.012.028-.019.483-.336.933-.69 1.406-1.063.162-.121.32-.25.483-.38.596-.459.656-.95.191-1.543L7.138 3.423c-.14-.185-.28-.363-.415-.543-.267-.352-.521-.682-.791-1.002-.005-.008-.01-.011-.013-.019-.14-.177-.373-.4-.688-.438-.255-.03-.531.062-.805.261L2.51 3.172c-.466.363-.75.819-.873 1.396-.187.905-.136 1.89.176 3.191.505 2.128 1.413 4.159 2.867 6.418 1.764 2.708 4.012 4.953 6.676 6.664.975.62 2.285 1.366 3.76 1.644.074.015.155.023.23.033.78.094 1.407-.083 1.98-.563.354-.327.725-.61 1.088-.877.241-.183.464-.352.685-.533-.005.002-.004 0 0 0 .576-.468.64-.99.188-1.563z"/></g></g></svg>